<svg width="89" height="73" viewBox="0 0 89 73" fill="none" xmlns="http://www.w3.org/2000/svg">
<path d="M7.94927 25.5946C11.9663 18.1827 17.2723 12.4045 23.2679 12.4045C29.2634 12.4045 34.5694 18.1827 38.5864 25.5946C36.0383 26.2299 33.76 27.7425 32.2612 29.8601C28.6339 24.8383 21.6491 23.7492 16.6728 27.44C15.7734 28.1055 14.9341 28.9223 14.2746 29.8601C12.7757 27.7425 10.4974 26.2299 7.94927 25.5946ZM32.2612 60.9898L23.2679 51.9141L14.2746 60.9898L5.28126 51.9141L1.47409 55.7561C4.53181 67.9176 16.7627 75.2386 28.7837 72.1831C36.7578 70.126 43.0231 63.8335 45.0616 55.7561L41.2545 51.9141L32.2612 60.9898ZM14.2746 54.5763L23.2679 45.5006L32.2612 54.5763L41.2545 45.5006L45.7511 50.0384C45.3614 43.0502 43.6527 36.1829 40.6849 29.8299C37.2075 30.1324 34.5095 33.0669 34.5095 36.6064H30.0128C30.0128 34.8011 29.3022 33.0698 28.0373 31.7933C26.7723 30.5168 25.0567 29.7996 23.2679 29.7996C21.479 29.7996 19.7634 30.5168 18.4984 31.7933C17.2335 33.0698 16.5229 34.8011 16.5229 36.6064H12.0262C12.0262 33.0669 9.32824 30.1324 5.85083 29.8299C2.88304 36.1829 1.17432 43.0502 0.784607 50.0384L5.28126 45.5006L14.2746 54.5763Z" fill="#E4AA0A"/>
<path d="M49.0081 14.6828C54.9667 8.7191 61.6968 4.68815 67.4448 6.39293C73.1929 8.09771 76.6369 15.1461 78.3806 23.3942C75.7571 23.2788 73.1427 24.0811 71.1035 25.6852C69.0539 19.8392 62.6671 16.809 56.8468 18.9325C55.7953 19.3148 54.7583 19.8592 53.8594 20.5708C53.0245 18.1144 51.2703 16.0164 49.0081 14.6828ZM62.2521 55.5299L56.2106 44.2716L45.0079 50.4155L38.9664 39.1573L34.224 41.7582C33.6975 54.2871 43.3418 64.7837 55.7355 65.2724C63.9653 65.5676 71.7613 61.3163 76.0123 54.152L73.4548 49.386L62.2521 55.5299ZM46.8315 44.2668L58.0342 38.1229L64.0757 49.3811L75.2784 43.2372L78.2991 48.8663C79.9126 42.0557 80.227 34.986 79.1882 28.0514C75.7683 27.3527 72.3472 29.3988 71.3408 32.7923L67.0298 31.5137C67.5431 29.7829 67.3541 27.921 66.5043 26.3375C65.6546 24.754 64.2137 23.5786 62.4987 23.07C60.7836 22.5613 58.9349 22.7611 57.3592 23.6252C55.7835 24.4894 54.61 25.9472 54.0966 27.6779L49.7856 26.3993C50.792 23.0059 49.0398 19.4254 45.792 18.1466C41.1403 23.3935 37.5494 29.4915 35.1887 36.0805L40.7901 33.0085L46.8315 44.2668Z" fill="#08C2FF"/>
</svg>
